<svg width="1280" height="640" viewBox="0 0 1280 640" fill="none" xmlns="http://www.w3.org/2000/svg">
  <rect width="1280" height="640" rx="32" fill="#F7FAFC"/>
  <rect x="24" y="24" width="1232" height="592" rx="28" fill="url(#bg)"/>
  <circle cx="1090" cy="126" r="160" fill="#7DD3FC" fill-opacity="0.22"/>
  <circle cx="170" cy="510" r="180" fill="#C4B5FD" fill-opacity="0.18"/>
  <rect x="80" y="88" width="476" height="56" rx="18" fill="#E0F2FE"/>
  <text x="104" y="125" fill="#0F172A" font-family="Inter, Arial, sans-serif" font-size="22" font-weight="700">AGENTIC AI CODE REVIEW BOT</text>
  <text x="80" y="218" fill="#0F172A" font-family="Inter, Arial, sans-serif" font-size="56" font-weight="800">Review pull requests.</text>
  <text x="80" y="282" fill="#0F172A" font-family="Inter, Arial, sans-serif" font-size="56" font-weight="800">Surface risk.</text>
  <text x="80" y="346" fill="#0F172A" font-family="Inter, Arial, sans-serif" font-size="56" font-weight="800">Draft fixes.</text>
  <text x="80" y="410" fill="#475569" font-family="Inter, Arial, sans-serif" font-size="24" font-weight="500">FastAPI backend, React dashboard, GitHub PR analysis, SQLite history,</text>
  <text x="80" y="446" fill="#475569" font-family="Inter, Arial, sans-serif" font-size="24" font-weight="500">structured findings, webhook automation, and autofix patch drafts.</text>
  <rect x="80" y="500" width="186" height="48" rx="16" fill="#0EA5E9"/>
  <text x="112" y="531" fill="white" font-family="Inter, Arial, sans-serif" font-size="20" font-weight="700">FastAPI + React</text>
  <g filter="url(#shadow)">
    <rect x="714" y="88" width="468" height="442" rx="28" fill="white"/>
    <rect x="742" y="118" width="120" height="18" rx="9" fill="#E2E8F0"/>
    <rect x="890" y="118" width="76" height="32" rx="16" fill="#D1FAE5"/>
    <rect x="978" y="118" width="76" height="32" rx="16" fill="#DBEAFE"/>
    <rect x="1066" y="118" width="88" height="32" rx="16" fill="#FEF3C7"/>
    <rect x="742" y="178" width="412" height="88" rx="20" fill="#F8FAFC"/>
    <rect x="764" y="200" width="180" height="14" rx="7" fill="#CBD5E1"/>
    <rect x="764" y="226" width="328" height="12" rx="6" fill="#E2E8F0"/>
    <rect x="742" y="290" width="198" height="212" rx="20" fill="#F8FAFC"/>
    <rect x="764" y="314" width="96" height="14" rx="7" fill="#CBD5E1"/>
    <rect x="764" y="340" width="150" height="12" rx="6" fill="#E2E8F0"/>
    <rect x="764" y="372" width="154" height="82" rx="16" fill="#EFF6FF"/>
    <rect x="968" y="290" width="186" height="212" rx="20" fill="#F8FAFC"/>
    <rect x="990" y="314" width="96" height="14" rx="7" fill="#CBD5E1"/>
    <rect x="990" y="340" width="128" height="12" rx="6" fill="#E2E8F0"/>
    <rect x="990" y="372" width="142" height="104" rx="16" fill="#F0FDF4"/>
  </g>
  <defs>
    <linearGradient id="bg" x1="24" y1="24" x2="1256" y2="616" gradientUnits="userSpaceOnUse">
      <stop stop-color="#F8FBFF"/>
      <stop offset="1" stop-color="#EEF4FF"/>
    </linearGradient>
    <filter id="shadow" x="684" y="62" width="528" height="502" filterUnits="userSpaceOnUse" color-interpolation-filters="sRGB">
      <feFlood flood-opacity="0" result="BackgroundImageFix"/>
      <feColorMatrix in="SourceAlpha" type="matrix" values="0 0 0 0 0 0 0 0 0 0 0 0 0 0 0 0 0 0 127 0" result="hardAlpha"/>
      <feOffset dy="4"/>
      <feGaussianBlur stdDeviation="15"/>
      <feColorMatrix type="matrix" values="0 0 0 0 0.0588235 0 0 0 0 0.0941176 0 0 0 0 0.164706 0 0 0 0.12 0"/>
      <feBlend mode="normal" in2="BackgroundImageFix" result="effect1_dropShadow_1_1"/>
      <feBlend mode="normal" in="SourceGraphic" in2="effect1_dropShadow_1_1" result="shape"/>
    </filter>
  </defs>
</svg>
