<svg width="1200" height="675" viewBox="0 0 1200 675" fill="none" xmlns="http://www.w3.org/2000/svg">
  <rect width="1200" height="675" fill="#07140F"/>
  <rect x="72" y="72" width="1056" height="531" rx="28" fill="#0B1F1A" stroke="#34D399" stroke-opacity="0.38" stroke-width="2"/>
  <text x="108" y="139" fill="#DCFCE7" font-family="Arial, sans-serif" font-size="48" font-weight="800">RefundCopilot AI Agent</text>
  <text x="108" y="184" fill="#86EFAC" font-family="Arial, sans-serif" font-size="22">Policy-grounded refund agent with admin traceability</text>
  <rect x="112" y="246" width="270" height="278" rx="20" fill="#102A24" stroke="#34D399" stroke-opacity="0.32"/>
  <rect x="465" y="246" width="270" height="278" rx="20" fill="#102A24" stroke="#38BDF8" stroke-opacity="0.32"/>
  <rect x="818" y="246" width="270" height="278" rx="20" fill="#102A24" stroke="#FBBF24" stroke-opacity="0.32"/>
  <text x="142" y="301" fill="#34D399" font-family="Arial, sans-serif" font-size="24" font-weight="700">Customer Chat</text>
  <text x="495" y="301" fill="#38BDF8" font-family="Arial, sans-serif" font-size="24" font-weight="700">Policy Tools</text>
  <text x="848" y="301" fill="#FBBF24" font-family="Arial, sans-serif" font-size="24" font-weight="700">Admin Logs</text>
  <g fill="#94A3B8">
    <rect x="142" y="352" width="180" height="18" rx="9"/>
    <rect x="142" y="390" width="132" height="18" rx="9"/>
    <rect x="495" y="352" width="185" height="18" rx="9"/>
    <rect x="495" y="390" width="150" height="18" rx="9"/>
    <rect x="848" y="352" width="170" height="18" rx="9"/>
    <rect x="848" y="390" width="198" height="18" rx="9"/>
  </g>
  <path d="M394 385H451" stroke="#34D399" stroke-width="5" stroke-linecap="round"/>
  <path d="M747 385H804" stroke="#38BDF8" stroke-width="5" stroke-linecap="round"/>
  <text x="108" y="583" fill="#CBD5E1" font-family="Arial, sans-serif" font-size="20">FastAPI • React • SQLite • Docker • Prompt-injection defense</text>
</svg>
